<?xml version="1.0" encoding="UTF-8"?>
<svg width="187px" height="21px" viewBox="0 0 187 21" version="1.1" xmlns="http://www.w3.org/2000/svg" xmlns:xlink="http://www.w3.org/1999/xlink">
    <!-- Generator: Sketch 41.2 (35397) - http://www.bohemiancoding.com/sketch -->
    <title>Яроблтранском Copy</title>
    <desc>Created with Sketch.</desc>
    <defs></defs>
    <g id="Symbols" stroke="none" stroke-width="1" fill="none" fill-rule="evenodd">
        <path d="M0.828,17 L4.163,17 L8.165,11.434 L11.73,11.434 L11.73,17 L14.536,17 L14.536,0.9 L7.383,0.9 C3.657,0.9 1.38,2.901 1.38,6.029 C1.38,8.697 2.967,10.33 5.221,10.951 L0.828,17 Z M7.567,8.973 C5.543,8.973 4.232,7.892 4.232,6.213 C4.232,4.465 5.497,3.453 7.613,3.453 L11.73,3.453 L11.73,8.973 L7.567,8.973 Z M18.354,20.68 L21.137,20.68 L21.137,15.114 C21.988,16.241 23.253,17.253 25.254,17.253 C28.152,17.253 30.912,14.976 30.912,10.951 C30.912,6.88 28.129,4.603 25.254,4.603 C23.299,4.603 22.034,5.615 21.137,6.88 L21.137,4.856 L18.354,4.856 L18.354,20.68 Z M24.61,14.838 C22.724,14.838 21.068,13.297 21.068,10.951 C21.068,8.582 22.724,7.018 24.61,7.018 C26.496,7.018 28.083,8.559 28.083,10.905 C28.083,13.343 26.519,14.838 24.61,14.838 Z M39.537,17.276 C43.286,17.276 46.046,14.401 46.046,10.951 C46.046,7.432 43.309,4.603 39.583,4.603 C35.857,4.603 33.097,7.478 33.097,10.951 C33.097,14.447 35.834,17.276 39.537,17.276 Z M39.583,14.861 C37.421,14.861 35.88,13.067 35.88,10.951 C35.88,8.789 37.306,7.041 39.537,7.041 C41.722,7.041 43.263,8.812 43.263,10.951 C43.263,13.09 41.837,14.861 39.583,14.861 Z M54.809,14.861 C52.808,14.861 51.29,13.205 51.29,11.135 C51.29,9.042 52.716,7.386 54.763,7.386 C56.787,7.386 58.305,9.065 58.305,11.135 C58.305,13.205 56.902,14.861 54.809,14.861 Z M54.763,17.276 C58.42,17.276 61.088,14.447 61.088,11.089 C61.088,7.754 58.42,5.178 55.292,5.178 C52.762,5.178 51.244,6.397 50.623,7.455 C50.761,5.845 51.474,4.511 53.82,4.005 L60.444,2.556 L59.984,0.325 L53.36,1.705 C48.944,2.625 48.507,6.42 48.507,10.192 C48.507,14.677 50.83,17.276 54.763,17.276 Z M63.365,17.138 C66.056,17.138 67.712,16.057 67.712,7.248 L71.507,7.248 L71.507,17 L74.29,17 L74.29,4.856 L65.113,4.856 C65.113,14.102 64.147,14.792 62.744,14.792 C62.56,14.792 62.123,14.746 61.939,14.7 L61.732,16.977 C62.146,17.046 62.928,17.138 63.365,17.138 Z M80.385,17 L83.191,17 L83.191,7.248 L87.101,7.248 L87.101,4.856 L76.475,4.856 L76.475,7.248 L80.385,7.248 L80.385,17 Z M89.309,20.68 L92.092,20.68 L92.092,15.114 C92.943,16.241 94.208,17.253 96.209,17.253 C99.107,17.253 101.867,14.976 101.867,10.951 C101.867,6.88 99.084,4.603 96.209,4.603 C94.254,4.603 92.989,5.615 92.092,6.88 L92.092,4.856 L89.309,4.856 L89.309,20.68 Z M95.565,14.838 C93.679,14.838 92.023,13.297 92.023,10.951 C92.023,8.582 93.679,7.018 95.565,7.018 C97.451,7.018 99.038,8.559 99.038,10.905 C99.038,13.343 97.474,14.838 95.565,14.838 Z M114.908,17 L114.908,9.801 C114.908,6.558 113.16,4.672 109.572,4.672 C107.594,4.672 106.283,5.086 104.949,5.684 L105.708,7.915 C106.812,7.455 107.824,7.156 109.181,7.156 C111.113,7.156 112.171,8.076 112.171,9.755 L112.171,9.985 C111.228,9.686 110.285,9.479 108.813,9.479 C105.984,9.479 103.891,10.767 103.891,13.458 C103.891,15.942 105.915,17.253 108.215,17.253 C110.055,17.253 111.32,16.494 112.148,15.505 L112.148,17 L114.908,17 Z M112.217,12.607 C112.217,14.125 110.837,15.16 108.997,15.16 C107.686,15.16 106.651,14.516 106.651,13.366 C106.651,12.147 107.686,11.434 109.434,11.434 C110.515,11.434 111.504,11.641 112.217,11.917 L112.217,12.607 Z M118.22,17 L121.003,17 L121.003,12.101 L126.362,12.101 L126.362,17 L129.145,17 L129.145,4.856 L126.362,4.856 L126.362,9.778 L121.003,9.778 L121.003,4.856 L118.22,4.856 L118.22,17 Z M138.253,17.276 C140.622,17.276 142.025,16.333 143.221,14.999 L141.542,13.343 C140.668,14.24 139.702,14.861 138.391,14.861 C136.252,14.861 134.757,13.113 134.757,10.951 L134.757,10.905 C134.757,8.789 136.229,7.041 138.253,7.041 C139.656,7.041 140.553,7.662 141.404,8.559 L143.129,6.696 C142.002,5.454 140.576,4.603 138.276,4.603 C134.642,4.603 131.974,7.501 131.974,10.951 L131.974,10.997 C131.974,14.447 134.642,17.276 138.253,17.276 Z M145.659,17 L148.419,17 L148.419,14.079 L150.397,11.986 L154.077,17 L157.366,17 L152.26,9.962 L156.975,4.856 L153.709,4.856 L148.419,10.675 L148.419,4.856 L145.659,4.856 L145.659,17 Z M164.381,17.276 C168.13,17.276 170.89,14.401 170.89,10.951 C170.89,7.432 168.153,4.603 164.427,4.603 C160.701,4.603 157.941,7.478 157.941,10.951 C157.941,14.447 160.678,17.276 164.381,17.276 Z M164.427,14.861 C162.265,14.861 160.724,13.067 160.724,10.951 C160.724,8.789 162.15,7.041 164.381,7.041 C166.566,7.041 168.107,8.812 168.107,10.951 C168.107,13.09 166.681,14.861 164.427,14.861 Z M173.719,17 L176.433,17 L176.433,8.95 L180.228,14.355 L184.046,8.904 L184.046,17 L186.852,17 L186.852,4.856 L184.092,4.856 L180.274,10.491 L176.479,4.856 L173.719,4.856 L173.719,17 Z" id="Яроблтранском-Copy" fill="#000000"></path>
    </g>
</svg>